<?xml version="1.0" standalone="no"?>
<!DOCTYPE svg PUBLIC "-//W3C//DTD SVG 20010904//EN"
 "http://www.w3.org/TR/2001/REC-SVG-20010904/DTD/svg10.dtd">
<svg version="1.0" xmlns="http://www.w3.org/2000/svg"
 width="1080.000000pt" height="726.000000pt" viewBox="0 0 1080.000000 726.000000"
 preserveAspectRatio="xMidYMid meet">

<g transform="translate(0.000000,726.000000) scale(0.100000,-0.100000)"
fill="#000000" stroke="none">
<path d="M7146 5490 c-218 -545 -396 -992 -396 -995 0 -3 56 -5 124 -5 87 0
126 4 133 13 5 6 108 258 229 559 120 301 221 548 224 548 3 0 67 -161 144
-358 76 -196 174 -448 218 -559 l79 -203 316 0 c313 0 315 0 310 21 -3 11
-178 459 -388 995 l-382 974 -108 0 -107 0 -396 -990z"/>
<path d="M1060 6276 l0 -114 273 -4 272 -3 58 -28 c44 -22 63 -39 85 -75 l27
-47 3 -758 3 -757 322 2 322 3 5 766 5 766 27 35 c59 78 146 93 528 92 536 -1
719 -42 869 -193 106 -107 166 -226 204 -401 28 -129 31 -455 5 -571 -48 -217
-145 -366 -300 -461 l-53 -33 330 -3 c182 -1 341 0 353 3 40 10 202 183 256
273 54 90 109 242 125 342 15 93 13 274 -4 371 -37 213 -125 380 -280 534
-207 206 -485 324 -857 364 -63 7 -533 11 -1338 11 l-1240 0 0 -114z"/>
<path d="M3782 4245 l-52 -75 33 0 c28 0 42 11 100 75 l68 75 -48 0 -49 0 -52
-75z"/>
<path d="M2905 4097 c-239 -63 -350 -319 -233 -539 66 -124 169 -181 328 -181
118 0 186 24 261 91 l51 46 -28 22 -28 23 -48 -44 c-63 -57 -128 -78 -221 -73
-171 9 -287 129 -287 298 1 121 55 210 165 268 43 23 62 27 140 27 102 0 156
-19 217 -79 l35 -34 28 22 27 22 -51 46 c-29 27 -76 56 -107 68 -71 26 -183
34 -249 17z"/>
<path d="M3707 4099 c-100 -23 -207 -112 -250 -207 -32 -72 -36 -209 -7 -285
30 -81 111 -166 192 -202 54 -25 75 -29 153 -29 116 0 190 31 265 110 78 82
95 128 95 254 0 125 -17 171 -92 251 -90 96 -228 138 -356 108z m186 -75 c57
-19 140 -92 170 -148 18 -34 22 -57 22 -136 0 -80 -4 -102 -23 -138 -58 -108
-164 -167 -287 -160 -110 7 -204 69 -250 163 -23 48 -32 164 -16 221 23 84
100 167 188 199 52 19 139 18 196 -1z"/>
<path d="M8387 4095 c-77 -27 -114 -88 -104 -171 6 -58 39 -99 145 -183 112
-89 137 -122 137 -183 0 -40 -5 -53 -31 -79 -63 -63 -163 -46 -214 37 -23 37
-36 41 -64 21 -17 -12 -17 -16 -3 -43 34 -66 124 -124 192 -124 69 0 160 59
185 120 7 18 11 53 8 85 -6 71 -41 122 -128 190 -36 28 -86 71 -112 96 -42 40
-48 51 -48 87 0 54 42 92 102 92 35 0 47 -6 84 -43 l43 -43 28 22 28 22 -45
45 c-63 63 -127 80 -203 52z"/>
<path d="M1110 3740 l0 -350 35 0 35 0 0 160 c0 153 1 160 20 160 14 0 59 -49
147 -160 124 -157 127 -160 165 -160 21 0 38 2 38 5 0 3 -54 74 -120 158
l-121 152 68 13 c75 13 106 32 140 82 55 81 35 191 -47 252 -34 24 -122 38
-252 38 l-108 0 0 -350z m329 246 c58 -56 48 -144 -21 -186 -27 -16 -51 -20
-135 -20 l-103 0 0 121 0 121 114 -4 c111 -3 116 -4 145 -32z"/>
<path d="M1700 3740 l0 -350 30 0 30 0 0 350 0 350 -30 0 -30 0 0 -350z"/>
<path d="M1930 3741 l0 -351 35 0 35 0 2 262 3 262 229 -262 c126 -144 233
-262 238 -262 4 0 8 158 8 350 l0 350 -35 0 -35 0 -2 -267 -3 -266 -227 261
c-126 143 -232 264 -238 267 -7 4 -10 -112 -10 -344z"/>
<path d="M4310 3741 l0 -351 35 0 35 0 2 262 3 262 229 -262 c126 -144 233
-262 238 -262 4 0 8 158 8 350 l0 350 -35 0 -35 0 -2 -267 -3 -266 -227 261
c-126 143 -232 264 -238 267 -7 4 -10 -112 -10 -344z"/>
<path d="M5552 4034 c-44 -87 -302 -633 -302 -639 0 -3 16 -5 35 -5 36 0 36 0
90 115 l54 115 153 0 153 0 58 -115 c56 -113 57 -115 91 -115 l35 0 -33 73
c-113 245 -289 613 -296 621 -5 5 -21 -17 -38 -50z m148 -336 c0 -5 -52 -8
-115 -8 -63 0 -115 4 -115 9 0 5 26 62 57 127 l57 118 58 -119 c32 -66 58
-123 58 -127z"/>
<path d="M6056 3758 c-25 -183 -46 -341 -46 -350 0 -13 8 -18 29 -18 34 0 30
-18 67 270 15 118 30 218 33 222 4 4 63 -105 131 -242 69 -138 127 -250 130
-250 3 0 62 115 132 254 105 212 128 250 132 228 3 -15 17 -115 31 -222 37
-280 31 -260 69 -260 l32 0 -50 350 c-27 193 -52 350 -56 350 -3 0 -70 -129
-148 -287 l-141 -286 -141 284 c-77 156 -144 285 -149 287 -4 1 -29 -147 -55
-330z"/>
<path d="M7182 4034 c-44 -87 -302 -633 -302 -639 0 -3 16 -5 35 -5 36 0 36 0
90 115 l54 115 153 0 153 0 58 -115 c56 -113 57 -115 91 -115 l35 0 -33 73
c-113 245 -289 613 -296 621 -5 5 -21 -17 -38 -50z m148 -336 c0 -5 -52 -8
-115 -8 -63 0 -115 4 -115 9 0 5 26 62 57 127 l57 118 58 -119 c32 -66 58
-123 58 -127z"/>
<path d="M7600 4055 l0 -35 75 0 75 0 0 -315 0 -315 35 0 35 0 0 315 0 315 80
0 80 0 0 35 0 35 -190 0 -190 0 0 -35z"/>
<path d="M8080 3740 l0 -350 30 0 30 0 0 350 0 350 -30 0 -30 0 0 -350z"/>
<path d="M8730 4055 l0 -35 75 0 75 0 0 -315 0 -315 35 0 35 0 0 315 0 315 80
0 80 0 0 35 0 35 -190 0 -190 0 0 -35z"/>
<path d="M9462 4034 c-44 -87 -302 -633 -302 -639 0 -3 16 -5 35 -5 36 0 36 0
90 115 l54 115 153 0 153 0 58 -115 c56 -113 57 -115 91 -115 l35 0 -33 73
c-113 245 -289 613 -296 621 -5 5 -21 -17 -38 -50z m148 -336 c0 -5 -52 -8
-115 -8 -63 0 -115 4 -115 9 0 5 26 62 57 127 l57 118 58 -119 c32 -66 58
-123 58 -127z"/>
<path d="M1778 2633 l-3 -338 -25 -45 c-19 -34 -39 -51 -84 -75 l-60 -30 -273
-3 -273 -4 0 -114 0 -114 1040 0 1040 0 0 114 0 114 -272 4 c-292 5 -332 11
-387 61 -49 45 -51 62 -51 427 l0 340 -325 0 -324 0 -3 -337z"/>
<path d="M3770 2943 c0 -49 51 -376 76 -493 32 -142 71 -238 134 -328 63 -89
126 -143 225 -193 98 -48 190 -69 315 -69 360 0 592 208 701 628 17 68 39 209
54 345 l6 57 -105 0 -105 0 -5 -42 c-3 -24 -10 -88 -17 -143 -21 -190 -82
-337 -163 -396 -51 -38 -92 -45 -144 -24 -113 45 -206 226 -291 565 l-29 115
-326 3 -326 2 0 -27z"/>
<path d="M6137 2963 c-3 -5 -37 -89 -77 -188 -84 -209 -105 -253 -171 -356
-112 -175 -250 -254 -476 -274 l-83 -7 0 -114 0 -114 815 0 815 0 0 113 0 114
-152 6 c-84 4 -181 13 -216 22 -163 39 -284 145 -314 273 -20 91 12 249 96
465 l26 67 -129 0 c-72 0 -132 -3 -134 -7z"/>
<path d="M8500 2962 c0 -4 48 -129 106 -277 86 -219 107 -282 111 -335 3 -53
1 -71 -16 -97 -43 -69 -169 -101 -423 -110 l-168 -6 0 -114 0 -113 895 0 895
0 0 115 0 115 -87 0 c-181 0 -288 35 -367 120 -57 61 -62 71 -197 417 l-114
293 -317 0 c-175 0 -318 -3 -318 -8z"/>
</g>
</svg>
